<?xml version="1.0" encoding="UTF-8"?>
<svg width="43px" height="43px" viewBox="0 0 43 43" version="1.1" xmlns="http://www.w3.org/2000/svg" xmlns:xlink="http://www.w3.org/1999/xlink">
    <!-- Generator: Sketch 55 (78076) - https://sketchapp.com -->
    <title>DE_ACTIVE</title>
    <desc>Created with Sketch.</desc>
    <defs>
        <linearGradient x1="100%" y1="100%" x2="24.0788747%" y2="-10.4650277%" id="linearGradient-1">
            <stop stop-color="#6C193F" offset="0%"></stop>
            <stop stop-color="#AE0055" offset="100%"></stop>
        </linearGradient>
        <path d="M3.9095558,13.02 L6.0095558,13.02 C6.3495575,13.02 6.6795542,12.9650005 6.9995558,12.855 C7.3195574,12.7449994 7.60455455,12.5625013 7.8545558,12.3075 C8.10455705,12.0524987 8.30455505,11.7200021 8.4545558,11.31 C8.60455655,10.8999979 8.6795558,10.400003 8.6795558,9.81 C8.6795558,9.2699973 8.62705632,8.78250218 8.5220558,8.3475 C8.41705527,7.91249782 8.244557,7.54000155 8.0045558,7.23 C7.7645546,6.91999845 7.44705777,6.68250083 7.0520558,6.5175 C6.65705382,6.35249918 6.1695587,6.27 5.5895558,6.27 L3.9095558,6.27 L3.9095558,13.02 Z M1.5545558,4.29 L6.1745558,4.29 C6.86455925,4.29 7.50705282,4.3999989 8.1020558,4.62 C8.69705877,4.8400011 9.21205362,5.1699978 9.6470558,5.61 C10.082058,6.0500022 10.4220546,6.5999967 10.6670558,7.26 C10.912057,7.9200033 11.0345558,8.69499555 11.0345558,9.585 C11.0345558,10.3650039 10.9345568,11.0849967 10.7345558,11.745 C10.5345548,12.4050033 10.2320578,12.9749976 9.8270558,13.455 C9.42205377,13.9350024 8.91705882,14.3124986 8.3120558,14.5875 C7.70705277,14.8625014 6.9945599,15 6.1745558,15 L1.5545558,15 L1.5545558,4.29 Z M12.6695558,4.29 L20.6795558,4.29 L20.6795558,6.27 L15.0245558,6.27 L15.0245558,8.565 L20.2145558,8.565 L20.2145558,10.395 L15.0245558,10.395 L15.0245558,13.02 L20.7995558,13.02 L20.7995558,15 L12.6695558,15 L12.6695558,4.29 Z" id="path-2"></path>
    </defs>
    <g id="Page-1" stroke="none" stroke-width="1" fill="none" fill-rule="evenodd">
        <g id="DE_ACTIVE" transform="translate(1.000000, 1.000000)" fill-rule="nonzero">
            <circle id="Oval-Copy-7" stroke="#FFFFFF" fill="url(#linearGradient-1)" cx="20.5" cy="20.5" r="20.5"></circle>
            <g id="DE-Copy" transform="translate(10.000000, 11.000000)">
                <g id="DE">
                    <use fill="#000000" xlink:href="#path-2"></use>
                    <use fill="#FFFFFF" xlink:href="#path-2"></use>
                </g>
            </g>
        </g>
    </g>
</svg>