<?xml version="1.0" encoding="UTF-8"?>
<svg width="123px" height="53px" viewBox="0 0 123 53" version="1.1" xmlns="http://www.w3.org/2000/svg" xmlns:xlink="http://www.w3.org/1999/xlink">
    <!-- Generator: Sketch 54 (76480) - https://sketchapp.com -->
    <title>Search</title>
    <desc>Created with Sketch.</desc>
    <defs>
        <linearGradient x1="88.0991293%" y1="53.0304752%" x2="15.5328616%" y2="44.3869668%" id="linearGradient-1">
            <stop stop-color="#6C193F" offset="0%"></stop>
            <stop stop-color="#AE0055" offset="100%"></stop>
        </linearGradient>
        <path d="M20.5,41 C20.742039,41 90.9830983,40.9958054 91.2231091,40.9874849 C102.210066,40.6065975 111,31.5797984 111,20.5 C111,9.42812719 102.222636,0.406317549 91.2466832,0.0133457658 C90.9988842,0.00447382316 20.7499646,0 20.5,0 C9.17816263,0 2.06057393e-13,9.17816263 2.06057393e-13,20.5 C2.06057393e-13,31.8218374 9.17816263,41 20.5,41 Z" id="path-2"></path>
        <filter x="-7.7%" y="-18.3%" width="115.3%" height="141.5%" filterUnits="objectBoundingBox" id="filter-3">
            <feMorphology radius="1.5" operator="dilate" in="SourceAlpha" result="shadowSpreadOuter1"></feMorphology>
            <feOffset dx="0" dy="1" in="shadowSpreadOuter1" result="shadowOffsetOuter1"></feOffset>
            <feGaussianBlur stdDeviation="1.5" in="shadowOffsetOuter1" result="shadowBlurOuter1"></feGaussianBlur>
            <feComposite in="shadowBlurOuter1" in2="SourceAlpha" operator="out" result="shadowBlurOuter1"></feComposite>
            <feColorMatrix values="0 0 0 0 0.682352941   0 0 0 0 0   0 0 0 0 0.333333333  0 0 0 0.202524038 0" type="matrix" in="shadowBlurOuter1"></feColorMatrix>
        </filter>
    </defs>
    <g id="4_Deep-Search" stroke="none" stroke-width="1" fill="none" fill-rule="evenodd">
        <g id="Deep-Search-v2" transform="translate(-129.000000, -955.000000)">
            <g id="Search" transform="translate(135.000000, 960.000000)">
                <g id="Oval">
                    <use fill="black" fill-opacity="1" filter="url(#filter-3)" xlink:href="#path-2"></use>
                    <use stroke="#FFFFFF" stroke-width="1" fill="url(#linearGradient-1)" fill-rule="evenodd" xlink:href="#path-2"></use>
                </g>
                <path d="M8.966,16.004 L11.15,16.004 L15.322,22.71 L15.35,22.71 L15.35,16.004 L17.408,16.004 L17.408,26 L15.21,26 L11.052,19.308 L11.024,19.308 L11.024,26 L8.966,26 L8.966,16.004 Z M19.34,16.004 L26.816,16.004 L26.816,17.852 L21.538,17.852 L21.538,19.994 L26.382,19.994 L26.382,21.702 L21.538,21.702 L21.538,24.152 L26.928,24.152 L26.928,26 L19.34,26 L19.34,16.004 Z M37.932,26 L35.748,26 L34.054,19.196 L34.026,19.196 L32.36,26 L30.134,26 L27.488,16.004 L29.686,16.004 L31.268,22.808 L31.296,22.808 L33.032,16.004 L35.09,16.004 L36.798,22.892 L36.826,22.892 L38.464,16.004 L40.62,16.004 L37.932,26 Z M47.018,22.682 C47.018,23.0180017 47.0786661,23.3026655 47.2,23.536 C47.3213339,23.7693345 47.4823323,23.9583326 47.683,24.103 C47.8836677,24.2476674 48.119332,24.3549996 48.39,24.425 C48.660668,24.4950003 48.9406652,24.53 49.23,24.53 C49.426001,24.53 49.6359989,24.5136668 49.86,24.481 C50.0840011,24.4483332 50.293999,24.3853338 50.49,24.292 C50.686001,24.1986662 50.8493327,24.0703341 50.98,23.907 C51.1106673,23.7436658 51.176,23.5360013 51.176,23.284 C51.176,23.013332 51.0896675,22.7940008 50.917,22.626 C50.7443325,22.4579992 50.5180014,22.3180006 50.238,22.206 C49.9579986,22.0939994 49.6406684,21.9960004 49.286,21.912 C48.9313316,21.8279996 48.5720018,21.7346672 48.208,21.632 C47.8346648,21.5386662 47.4706684,21.424334 47.116,21.289 C46.7613316,21.153666 46.4440014,20.9786677 46.164,20.764 C45.8839986,20.5493323 45.6576675,20.2810016 45.485,19.959 C45.3123325,19.6369984 45.226,19.2473356 45.226,18.79 C45.226,18.2766641 45.3356656,17.8310019 45.555,17.453 C45.7743344,17.0749981 46.0613316,16.7600013 46.416,16.508 C46.7706684,16.2559987 47.1719978,16.0693339 47.62,15.948 C48.0680022,15.8266661 48.5159978,15.766 48.964,15.766 C49.4866693,15.766 49.9883309,15.8243327 50.469,15.941 C50.9496691,16.0576672 51.3766648,16.2466654 51.75,16.508 C52.1233352,16.7693346 52.4196656,17.102998 52.639,17.509 C52.8583344,17.915002 52.968,18.4073304 52.968,18.986 L50.84,18.986 C50.8213332,18.6873318 50.7583339,18.440001 50.651,18.244 C50.5436661,18.047999 50.4013342,17.8940006 50.224,17.782 C50.0466658,17.6699994 49.8436678,17.5906669 49.615,17.544 C49.3863322,17.4973331 49.136668,17.474 48.866,17.474 C48.6886658,17.474 48.5113342,17.4926665 48.334,17.53 C48.1566658,17.5673335 47.9956674,17.6326662 47.851,17.726 C47.7063326,17.8193338 47.5873338,17.9359993 47.494,18.076 C47.4006662,18.2160007 47.354,18.3933323 47.354,18.608 C47.354,18.804001 47.391333,18.9626661 47.466,19.084 C47.540667,19.2053339 47.6876656,19.3173328 47.907,19.42 C48.1263344,19.5226672 48.4296647,19.6253328 48.817,19.728 C49.2043353,19.8306672 49.7106635,19.9613325 50.336,20.12 C50.5226676,20.1573335 50.781665,20.2249995 51.113,20.323 C51.444335,20.4210005 51.7733317,20.5773323 52.1,20.792 C52.4266683,21.0066677 52.7089988,21.2936649 52.947,21.653 C53.1850012,22.0123351 53.304,22.4719972 53.304,23.032 C53.304,23.4893356 53.2153342,23.913998 53.038,24.306 C52.8606658,24.698002 52.5970018,25.0363319 52.247,25.321 C51.8969983,25.6056681 51.4630026,25.8273325 50.945,25.986 C50.4269974,26.1446675 49.8273367,26.224 49.146,26.224 C48.5953306,26.224 48.0610026,26.156334 47.543,26.021 C47.0249974,25.885666 46.5676687,25.6733348 46.171,25.384 C45.7743314,25.0946652 45.4593345,24.7260022 45.226,24.278 C44.9926655,23.8299978 44.8806666,23.2980031 44.89,22.682 L47.018,22.682 Z M54.606,16.004 L62.082,16.004 L62.082,17.852 L56.804,17.852 L56.804,19.994 L61.648,19.994 L61.648,21.702 L56.804,21.702 L56.804,24.152 L62.194,24.152 L62.194,26 L54.606,26 L54.606,16.004 Z M66.198,22.136 L68.788,22.136 L67.528,18.468 L67.5,18.468 L66.198,22.136 Z M66.408,16.004 L68.662,16.004 L72.4,26 L70.118,26 L69.362,23.774 L65.624,23.774 L64.84,26 L62.628,26 L66.408,16.004 Z M75.466,20.526 L77.874,20.526 C78.3780025,20.526 78.7559987,20.4140011 79.008,20.19 C79.2600013,19.9659989 79.386,19.6020025 79.386,19.098 C79.386,18.6126642 79.2600013,18.2603344 79.008,18.041 C78.7559987,17.8216656 78.3780025,17.712 77.874,17.712 L75.466,17.712 L75.466,20.526 Z M73.268,16.004 L78.658,16.004 C79.1060022,16.004 79.5096649,16.0763326 79.869,16.221 C80.2283351,16.3656674 80.5363321,16.5639987 80.793,16.816 C81.049668,17.0680013 81.245666,17.359665 81.381,17.691 C81.516334,18.022335 81.584,18.3793314 81.584,18.762 C81.584,19.3500029 81.4603346,19.8586645 81.213,20.288 C80.9656654,20.7173355 80.5620028,21.0439989 80.002,21.268 L80.002,21.296 C80.272668,21.370667 80.4966658,21.4849992 80.674,21.639 C80.8513342,21.7930008 80.9959994,21.9749989 81.108,22.185 C81.2200006,22.395001 81.3016664,22.6259987 81.353,22.878 C81.4043336,23.1300013 81.4393332,23.3819987 81.458,23.634 C81.4673334,23.7926675 81.4766666,23.9793323 81.486,24.194 C81.4953334,24.4086677 81.5116666,24.6279989 81.535,24.852 C81.5583335,25.0760011 81.5956664,25.2883323 81.647,25.489 C81.6983336,25.6896677 81.7753328,25.8599993 81.878,26 L79.68,26 C79.5586661,25.6826651 79.4840001,25.3046689 79.456,24.866 C79.4279999,24.4273311 79.3860003,24.0073353 79.33,23.606 C79.255333,23.0833307 79.0966679,22.7006679 78.854,22.458 C78.6113321,22.2153321 78.2146694,22.094 77.664,22.094 L75.466,22.094 L75.466,26 L73.268,26 L73.268,16.004 Z M90.04,19.364 C90.0026665,19.1119987 89.9186673,18.881001 89.788,18.671 C89.6573327,18.4609989 89.494001,18.2766675 89.298,18.118 C89.101999,17.9593325 88.8803346,17.8356671 88.633,17.747 C88.3856654,17.6583329 88.126668,17.614 87.856,17.614 C87.3613309,17.614 86.9413351,17.7096657 86.596,17.901 C86.2506649,18.0923343 85.9706677,18.3489984 85.756,18.671 C85.5413323,18.9930016 85.3850005,19.3593313 85.287,19.77 C85.1889995,20.1806687 85.14,20.6053311 85.14,21.044 C85.14,21.4640021 85.1889995,21.8723313 85.287,22.269 C85.3850005,22.6656686 85.5413323,23.0226651 85.756,23.34 C85.9706677,23.6573349 86.2506649,23.9116657 86.596,24.103 C86.9413351,24.2943343 87.3613309,24.39 87.856,24.39 C88.5280034,24.39 89.0529981,24.1846687 89.431,23.774 C89.8090019,23.3633313 90.0399996,22.8220034 90.124,22.15 L92.252,22.15 C92.1959997,22.7753365 92.0513345,23.3399975 91.818,23.844 C91.5846655,24.3480025 91.2766686,24.7773316 90.894,25.132 C90.5113314,25.4866684 90.0633359,25.7573324 89.55,25.944 C89.0366641,26.1306676 88.4720031,26.224 87.856,26.224 C87.0906628,26.224 86.4023364,26.0910013 85.791,25.825 C85.1796636,25.5589987 84.6640021,25.192669 84.244,24.726 C83.8239979,24.259331 83.5020011,23.7110031 83.278,23.081 C83.0539989,22.4509968 82.942,21.7720036 82.942,21.044 C82.942,20.2973296 83.0539989,19.6043365 83.278,18.965 C83.5020011,18.3256635 83.8239979,17.7680024 84.244,17.292 C84.6640021,16.8159976 85.1796636,16.442668 85.791,16.172 C86.4023364,15.901332 87.0906628,15.766 87.856,15.766 C88.4066694,15.766 88.9269976,15.8453325 89.417,16.004 C89.9070025,16.1626675 90.3456647,16.3936651 90.733,16.697 C91.1203353,17.0003348 91.4399987,17.3759978 91.692,17.824 C91.9440013,18.2720022 92.1026663,18.7853304 92.168,19.364 L90.04,19.364 Z M93.75,16.004 L95.948,16.004 L95.948,19.84 L99.994,19.84 L99.994,16.004 L102.192,16.004 L102.192,26 L99.994,26 L99.994,21.688 L95.948,21.688 L95.948,26 L93.75,26 L93.75,16.004 Z" id="NEWSEARCH" fill="#FFFFFF" fill-rule="nonzero"></path>
            </g>
        </g>
    </g>
</svg>